<?xml version="1.0" encoding="UTF-8" standalone="no"?>
<svg width="35px" height="40px" viewBox="0 0 35 40" version="1.1" xmlns="http://www.w3.org/2000/svg" xmlns:xlink="http://www.w3.org/1999/xlink" xmlns:sketch="http://www.bohemiancoding.com/sketch/ns">
    <!-- Generator: Sketch 3.3 (11970) - http://www.bohemiancoding.com/sketch -->
    <title>Untitled 3</title>
    <desc>Created with Sketch.</desc>
    <defs></defs>
    <g id="Page-1" stroke="none" stroke-width="1" fill="none" fill-rule="evenodd" sketch:type="MSPage">
        <path d="M17.5,0 L0,10.0063012 L0,29.9936988 L17.5,40 L35,29.9936988 L35,10.0063012 L17.5,0 Z M18.314638,10.7962307 C18.314638,10.203909 17.8394325,9.72549521 17.2510828,9.72549521 C16.685362,9.72549521 16.2101565,10.203909 16.2101565,10.7962307 L16.2101565,12.0947823 C13.3136658,12.4137248 12.0464511,14.1679086 12.0464511,16.1954716 C12.0464511,21.6858389 20.3059753,20.1594712 20.3059753,23.4855859 C20.3059753,24.8980455 19.3103067,25.5814937 17.2510828,25.5814937 C15.6896933,25.5814937 14.4903652,24.8069191 13.5399542,23.8500916 C13.3136658,23.6222755 13.0421198,23.3488962 12.5442855,23.3488962 C11.8880493,23.3488962 11.3449573,23.8956548 11.3449573,24.579103 C11.3449573,24.8069191 11.4128438,25.0347352 11.525988,25.216988 C12.2953683,26.4699764 14.0151597,27.65462 16.2101565,27.9279993 L16.2101565,29.2037693 C16.2101565,29.796091 16.685362,30.2745048 17.2510828,30.2745048 C17.8394325,30.2745048 18.314638,29.796091 18.314638,29.2037693 L18.314638,27.9279993 C21.3469017,27.6318384 22.93092,25.9915627 22.93092,23.4855859 C22.93092,17.7901841 14.6713958,19.1798621 14.6713958,16.1954716 C14.6713958,15.2842073 15.3728897,14.3957247 17.2510828,14.3957247 C18.5409263,14.3957247 19.7176257,14.9197016 20.4191195,15.6031498 C20.758552,15.9220923 21.0753557,16.1043452 21.3921593,16.1043452 C22.0710244,16.1043452 22.6141164,15.5575866 22.6141164,14.89692 C22.6141164,14.6235407 22.523601,14.3729431 22.387828,14.1679086 C21.6184477,13.0743915 20.1249447,12.34538 18.314638,12.117564 L18.314638,10.7962307 Z" id="Shape-Copy" fill="#0EAE03" sketch:type="MSShapeGroup"></path>
    </g>
</svg>